<svg width="212" height="212" viewBox="0 0 212 212" fill="none" xmlns="http://www.w3.org/2000/svg">
<circle cx="106" cy="106" r="103" fill="white" stroke="#272343" stroke-width="6"/>
<path d="M100.59 16.0074C92.0263 15.8194 69.9846 19.1655 50.3258 34.0539C30.667 48.9422 20.1674 77.1024 17.3749 89.3214C15.3271 100.224 14.024 127.106 25.1938 147.409C39.156 172.787 62.9703 186.87 80.4842 193.089C100.955 200.357 132.884 192.234 143.035 188.013C150.243 185.016 178.505 167.999 183.805 150.792C189.948 139.513 200.559 111.428 193.858 89.3214C191.177 65.8609 173.752 45.7089 165.375 38.5655C156.811 31.0461 133.987 16.0074 111.201 16.0074V56.612C111.201 60.5597 111.871 69.2446 114.552 72.4027C116.414 67.5151 120.807 58.3039 123.488 60.5597C126.466 58.8678 136.668 61.3493 153.646 84.8097C170.624 108.27 177.848 128.798 179.337 136.13C180.826 143.649 180.789 159.252 168.726 161.507C153.646 164.327 136.333 159.816 127.956 150.792C119.578 141.769 116.227 137.258 114.552 132.182C113.212 128.121 112.877 101.916 112.877 89.3214C110.456 86.8776 105.616 81.6515 105.616 80.2981C105.616 78.6062 99.4728 89.3214 97.7973 89.3214C96.1219 89.3214 99.4728 122.031 96.1219 132.182C92.7709 142.333 77.6918 159.816 60.3786 161.507C43.0654 163.199 37.4805 163.199 33.0126 153.612C28.5447 144.025 34.6881 121.467 42.5069 108.496C50.3258 95.5249 73.2238 60.5597 82.7181 60.5597C90.3136 60.5597 91.8401 62.8155 91.654 63.9434C93.1433 65.2593 96.1219 68.7934 96.1219 72.4027C96.1219 76.9143 100.59 63.3795 100.59 56.612V16.0074Z" fill="#272343"/>
<path d="M100.59 16.0074C92.0263 15.8194 69.9846 19.1655 50.3258 34.0539C30.667 48.9422 20.1674 77.1024 17.3749 89.3214C15.3271 100.224 14.024 127.106 25.1938 147.409C39.156 172.787 62.9703 186.87 80.4842 193.089C100.955 200.357 132.884 192.234 143.035 188.013C150.243 185.016 178.505 167.999 183.805 150.792C189.948 139.513 200.559 111.428 193.858 89.3214C191.177 65.8609 173.752 45.7089 165.375 38.5655C156.811 31.0461 133.987 16.0074 111.201 16.0074V56.612C111.201 60.5597 111.871 69.2446 114.552 72.4027C116.414 67.5151 120.807 58.3039 123.488 60.5597C126.466 58.8678 136.668 61.3493 153.646 84.8097C170.624 108.27 177.848 128.798 179.337 136.13C180.826 143.649 180.789 159.252 168.726 161.507C153.646 164.327 136.333 159.816 127.956 150.792C119.578 141.769 116.227 137.258 114.552 132.182C113.212 128.121 112.877 101.916 112.877 89.3214C110.456 86.8776 105.616 81.6515 105.616 80.2981C105.616 78.6062 99.4728 89.3214 97.7973 89.3214C96.1219 89.3214 99.4728 122.031 96.1219 132.182C92.7709 142.333 77.6918 159.816 60.3786 161.507C43.0654 163.199 37.4805 163.199 33.0126 153.612C28.5447 144.025 34.6881 121.467 42.5069 108.496C50.3258 95.5249 73.2238 60.5597 82.7181 60.5597C90.3136 60.5597 91.8401 62.8155 91.654 63.9434C93.1433 65.2593 96.1219 68.7934 96.1219 72.4027C96.1219 76.9143 100.59 63.3795 100.59 56.612V16.0074Z" fill="#272343"/>
<path d="M100.59 16.0074C92.0263 15.8194 69.9846 19.1655 50.3258 34.0539C30.667 48.9422 20.1674 77.1024 17.3749 89.3214C15.3271 100.224 14.024 127.106 25.1938 147.409C39.156 172.787 62.9703 186.87 80.4842 193.089C100.955 200.357 132.884 192.234 143.035 188.013C150.243 185.016 178.505 167.999 183.805 150.792C189.948 139.513 200.559 111.428 193.858 89.3214C191.177 65.8609 173.752 45.7089 165.375 38.5655C156.811 31.0461 133.987 16.0074 111.201 16.0074V56.612C111.201 60.5597 111.871 69.2446 114.552 72.4027C116.414 67.5151 120.807 58.3039 123.488 60.5597C126.466 58.8678 136.668 61.3493 153.646 84.8097C170.624 108.27 177.848 128.798 179.337 136.13C180.826 143.649 180.789 159.252 168.726 161.507C153.646 164.327 136.333 159.816 127.956 150.792C119.578 141.769 116.227 137.258 114.552 132.182C113.212 128.121 112.877 101.916 112.877 89.3214C110.456 86.8776 105.616 81.6515 105.616 80.2981C105.616 78.6062 99.4728 89.3214 97.7973 89.3214C96.1219 89.3214 99.4728 122.031 96.1219 132.182C92.7709 142.333 77.6918 159.816 60.3786 161.507C43.0654 163.199 37.4805 163.199 33.0126 153.612C28.5447 144.025 34.6881 121.467 42.5069 108.496C50.3258 95.5249 73.2238 60.5597 82.7181 60.5597C90.3136 60.5597 91.8401 62.8155 91.654 63.9434C93.1433 65.2593 96.1219 68.7934 96.1219 72.4027C96.1219 76.9143 100.59 63.3795 100.59 56.612M100.59 16.0074C100.59 27.2864 100.59 51.1981 100.59 56.612M100.59 16.0074V56.612" stroke="#272343"/>
</svg>
