<svg xmlns="http://www.w3.org/2000/svg" width="466" height="430" fill="none" viewBox="0 0 466 430"><path fill="#272343" stroke="#fff" stroke-width="8" d="M204.413 33.7H208.55V111.075C208.55 128.237 222.513 142.2 239.675 142.2C256.837 142.2 270.8 128.237 270.8 111.075V33.7H274.938C278.639 33.7 281.65 30.6885 281.65 26.9875V10.7125C281.65 7.01148 278.639 4 274.938 4H204.413C200.711 4 197.7 7.01149 197.7 10.7125V26.9875C197.7 30.6885 200.711 33.7 204.413 33.7ZM232.825 33.7H246.525V58.25H232.825V33.7ZM391.575 155.9H185.425C180.232 155.9 176 160.132 176 165.325V176.175C176 181.368 180.232 185.6 185.425 185.6H391.575C396.768 185.6 401 181.368 401 176.175V165.325C401 160.132 396.768 155.9 391.575 155.9ZM302.063 33.7H306.2V111.075C306.2 128.237 320.163 142.2 337.325 142.2C354.487 142.2 368.45 128.237 368.45 111.075V33.7H372.588C376.289 33.7 379.3 30.6885 379.3 26.9875V10.7125C379.3 7.01149 376.289 4 372.588 4H302.063C298.361 4 295.35 7.01148 295.35 10.7125V26.9875C295.35 30.6885 298.361 33.7 302.063 33.7ZM330.475 33.7H344.175V58.25H330.475V33.7Z"/><mask id="path-2-outside-1_309_181" width="247" height="201" x="92" y="87" fill="#000" maskUnits="userSpaceOnUse"><rect width="247" height="201" x="92" y="87" fill="#fff"/><path d="M273.25 210.5C280.103 210.5 286.802 208.468 292.5 204.66C298.198 200.853 302.639 195.441 305.262 189.11C307.884 182.778 308.571 175.811 307.234 169.09C305.897 162.368 302.597 156.194 297.751 151.349C292.905 146.503 286.731 143.203 280.009 141.866C273.288 140.529 266.321 141.215 259.99 143.837C253.658 146.46 248.247 150.901 244.439 156.599C240.632 162.297 238.6 168.997 238.6 175.85C238.6 185.04 242.25 193.853 248.748 200.351C255.246 206.849 264.06 210.5 273.25 210.5ZM290.574 222.05C289.71 222.047 288.85 222.179 288.026 222.443C278.455 225.769 268.041 225.769 258.469 222.443C257.647 222.179 256.788 222.047 255.925 222.05C250.597 222.05 245.322 223.103 240.403 225.148C235.484 227.194 231.017 230.191 227.26 233.969C223.504 237.746 220.531 242.229 218.512 247.16C216.494 252.09 215.47 257.371 215.5 262.698C215.55 272.177 223.343 279.8 232.825 279.8H313.674C323.156 279.8 330.949 272.177 330.999 262.698C331.029 257.371 330.005 252.09 327.987 247.16C325.968 242.229 322.995 237.746 319.239 233.969C315.482 230.191 311.016 227.194 306.096 225.148C301.177 223.103 295.902 222.05 290.574 222.05ZM219.077 225.821C221.518 223.421 224.188 221.266 227.05 219.386V141.2C227.05 138.137 225.833 135.199 223.667 133.033C221.501 130.867 218.563 129.65 215.5 129.65H203.95V106.55C203.95 103.487 202.733 100.549 200.567 98.3829C198.401 96.2169 195.463 95 192.4 95H134.65C131.587 95 128.649 96.2169 126.483 98.3829C124.317 100.549 123.1 103.487 123.1 106.55V129.65H111.55C108.487 129.65 105.549 130.867 103.383 133.033C101.217 135.199 100 138.137 100 141.2V274.025C100 275.556 100.608 277.025 101.691 278.108C102.774 279.191 104.243 279.8 105.775 279.8H209.837C206.074 274.91 204.008 268.929 203.95 262.76C203.894 255.907 205.203 249.112 207.8 242.77C210.397 236.428 214.23 230.667 219.077 225.821ZM151.975 240.818C151.975 241.967 151.519 243.069 150.706 243.881C149.894 244.693 148.792 245.15 147.644 245.15H133.206C132.057 245.15 130.956 244.693 130.144 243.881C129.331 243.069 128.875 241.967 128.875 240.818V226.381C128.875 225.232 129.331 224.131 130.144 223.318C130.956 222.506 132.057 222.05 133.206 222.05H147.644C148.792 222.05 149.894 222.506 150.706 223.318C151.519 224.131 151.975 225.232 151.975 226.381V240.818ZM151.975 194.618C151.975 195.767 151.519 196.869 150.706 197.681C149.894 198.493 148.792 198.95 147.644 198.95H133.206C132.057 198.95 130.956 198.493 130.144 197.681C129.331 196.869 128.875 195.767 128.875 194.618V180.181C128.875 179.032 129.331 177.931 130.144 177.118C130.956 176.306 132.057 175.85 133.206 175.85H147.644C148.792 175.85 149.894 176.306 150.706 177.118C151.519 177.931 151.975 179.032 151.975 180.181V194.618ZM169.3 150.584C169.3 151.159 169.072 151.709 168.666 152.116C168.259 152.522 167.709 152.75 167.134 152.75H159.915C159.341 152.75 158.79 152.522 158.384 152.116C157.978 151.709 157.75 151.159 157.75 150.584V141.2H148.365C147.791 141.2 147.24 140.972 146.834 140.566C146.428 140.159 146.2 139.609 146.2 139.034V131.816C146.2 131.241 146.428 130.69 146.834 130.284C147.24 129.878 147.791 129.65 148.365 129.65H157.75V120.266C157.75 119.691 157.978 119.14 158.384 118.734C158.79 118.328 159.341 118.1 159.915 118.1H167.134C167.709 118.1 168.259 118.328 168.666 118.734C169.072 119.14 169.3 119.691 169.3 120.266V129.65H178.684C179.259 129.65 179.809 129.878 180.215 130.284C180.622 130.69 180.85 131.241 180.85 131.816V139.034C180.85 139.609 180.622 140.159 180.215 140.566C179.809 140.972 179.259 141.2 178.684 141.2H169.3V150.584ZM198.175 240.818C198.175 241.967 197.718 243.069 196.906 243.881C196.094 244.693 194.992 245.15 193.844 245.15H179.406C178.257 245.15 177.156 244.693 176.343 243.881C175.531 243.069 175.075 241.967 175.075 240.818V226.381C175.075 225.232 175.531 224.131 176.343 223.318C177.156 222.506 178.257 222.05 179.406 222.05H193.844C194.992 222.05 196.094 222.506 196.906 223.318C197.718 224.131 198.175 225.232 198.175 226.381V240.818ZM198.175 194.618C198.175 195.767 197.718 196.869 196.906 197.681C196.094 198.493 194.992 198.95 193.844 198.95H179.406C178.257 198.95 177.156 198.493 176.343 197.681C175.531 196.869 175.075 195.767 175.075 194.618V180.181C175.075 179.032 175.531 177.931 176.343 177.118C177.156 176.306 178.257 175.85 179.406 175.85H193.844C194.992 175.85 196.094 176.306 196.906 177.118C197.718 177.931 198.175 179.032 198.175 180.181V194.618Z"/></mask><path fill="#272343" d="M273.25 210.5C280.103 210.5 286.802 208.468 292.5 204.66C298.198 200.853 302.639 195.441 305.262 189.11C307.884 182.778 308.571 175.811 307.234 169.09C305.897 162.368 302.597 156.194 297.751 151.349C292.905 146.503 286.731 143.203 280.009 141.866C273.288 140.529 266.321 141.215 259.99 143.837C253.658 146.46 248.247 150.901 244.439 156.599C240.632 162.297 238.6 168.997 238.6 175.85C238.6 185.04 242.25 193.853 248.748 200.351C255.246 206.849 264.06 210.5 273.25 210.5ZM290.574 222.05C289.71 222.047 288.85 222.179 288.026 222.443C278.455 225.769 268.041 225.769 258.469 222.443C257.647 222.179 256.788 222.047 255.925 222.05C250.597 222.05 245.322 223.103 240.403 225.148C235.484 227.194 231.017 230.191 227.26 233.969C223.504 237.746 220.531 242.229 218.512 247.16C216.494 252.09 215.47 257.371 215.5 262.698C215.55 272.177 223.343 279.8 232.825 279.8H313.674C323.156 279.8 330.949 272.177 330.999 262.698C331.029 257.371 330.005 252.09 327.987 247.16C325.968 242.229 322.995 237.746 319.239 233.969C315.482 230.191 311.016 227.194 306.096 225.148C301.177 223.103 295.902 222.05 290.574 222.05ZM219.077 225.821C221.518 223.421 224.188 221.266 227.05 219.386V141.2C227.05 138.137 225.833 135.199 223.667 133.033C221.501 130.867 218.563 129.65 215.5 129.65H203.95V106.55C203.95 103.487 202.733 100.549 200.567 98.3829C198.401 96.2169 195.463 95 192.4 95H134.65C131.587 95 128.649 96.2169 126.483 98.3829C124.317 100.549 123.1 103.487 123.1 106.55V129.65H111.55C108.487 129.65 105.549 130.867 103.383 133.033C101.217 135.199 100 138.137 100 141.2V274.025C100 275.556 100.608 277.025 101.691 278.108C102.774 279.191 104.243 279.8 105.775 279.8H209.837C206.074 274.91 204.008 268.929 203.95 262.76C203.894 255.907 205.203 249.112 207.8 242.77C210.397 236.428 214.23 230.667 219.077 225.821ZM151.975 240.818C151.975 241.967 151.519 243.069 150.706 243.881C149.894 244.693 148.792 245.15 147.644 245.15H133.206C132.057 245.15 130.956 244.693 130.144 243.881C129.331 243.069 128.875 241.967 128.875 240.818V226.381C128.875 225.232 129.331 224.131 130.144 223.318C130.956 222.506 132.057 222.05 133.206 222.05H147.644C148.792 222.05 149.894 222.506 150.706 223.318C151.519 224.131 151.975 225.232 151.975 226.381V240.818ZM151.975 194.618C151.975 195.767 151.519 196.869 150.706 197.681C149.894 198.493 148.792 198.95 147.644 198.95H133.206C132.057 198.95 130.956 198.493 130.144 197.681C129.331 196.869 128.875 195.767 128.875 194.618V180.181C128.875 179.032 129.331 177.931 130.144 177.118C130.956 176.306 132.057 175.85 133.206 175.85H147.644C148.792 175.85 149.894 176.306 150.706 177.118C151.519 177.931 151.975 179.032 151.975 180.181V194.618ZM169.3 150.584C169.3 151.159 169.072 151.709 168.666 152.116C168.259 152.522 167.709 152.75 167.134 152.75H159.915C159.341 152.75 158.79 152.522 158.384 152.116C157.978 151.709 157.75 151.159 157.75 150.584V141.2H148.365C147.791 141.2 147.24 140.972 146.834 140.566C146.428 140.159 146.2 139.609 146.2 139.034V131.816C146.2 131.241 146.428 130.69 146.834 130.284C147.24 129.878 147.791 129.65 148.365 129.65H157.75V120.266C157.75 119.691 157.978 119.14 158.384 118.734C158.79 118.328 159.341 118.1 159.915 118.1H167.134C167.709 118.1 168.259 118.328 168.666 118.734C169.072 119.14 169.3 119.691 169.3 120.266V129.65H178.684C179.259 129.65 179.809 129.878 180.215 130.284C180.622 130.69 180.85 131.241 180.85 131.816V139.034C180.85 139.609 180.622 140.159 180.215 140.566C179.809 140.972 179.259 141.2 178.684 141.2H169.3V150.584ZM198.175 240.818C198.175 241.967 197.718 243.069 196.906 243.881C196.094 244.693 194.992 245.15 193.844 245.15H179.406C178.257 245.15 177.156 244.693 176.343 243.881C175.531 243.069 175.075 241.967 175.075 240.818V226.381C175.075 225.232 175.531 224.131 176.343 223.318C177.156 222.506 178.257 222.05 179.406 222.05H193.844C194.992 222.05 196.094 222.506 196.906 223.318C197.718 224.131 198.175 225.232 198.175 226.381V240.818ZM198.175 194.618C198.175 195.767 197.718 196.869 196.906 197.681C196.094 198.493 194.992 198.95 193.844 198.95H179.406C178.257 198.95 177.156 198.493 176.343 197.681C175.531 196.869 175.075 195.767 175.075 194.618V180.181C175.075 179.032 175.531 177.931 176.343 177.118C177.156 176.306 178.257 175.85 179.406 175.85H193.844C194.992 175.85 196.094 176.306 196.906 177.118C197.718 177.931 198.175 179.032 198.175 180.181V194.618Z"/><path stroke="#fff" stroke-width="16" d="M273.25 210.5C280.103 210.5 286.802 208.468 292.5 204.66C298.198 200.853 302.639 195.441 305.262 189.11C307.884 182.778 308.571 175.811 307.234 169.09C305.897 162.368 302.597 156.194 297.751 151.349C292.905 146.503 286.731 143.203 280.009 141.866C273.288 140.529 266.321 141.215 259.99 143.837C253.658 146.46 248.247 150.901 244.439 156.599C240.632 162.297 238.6 168.997 238.6 175.85C238.6 185.04 242.25 193.853 248.748 200.351C255.246 206.849 264.06 210.5 273.25 210.5ZM290.574 222.05C289.71 222.047 288.85 222.179 288.026 222.443C278.455 225.769 268.041 225.769 258.469 222.443C257.647 222.179 256.788 222.047 255.925 222.05C250.597 222.05 245.322 223.103 240.403 225.148C235.484 227.194 231.017 230.191 227.26 233.969C223.504 237.746 220.531 242.229 218.512 247.16C216.494 252.09 215.47 257.371 215.5 262.698C215.55 272.177 223.343 279.8 232.825 279.8H313.674C323.156 279.8 330.949 272.177 330.999 262.698C331.029 257.371 330.005 252.09 327.987 247.16C325.968 242.229 322.995 237.746 319.239 233.969C315.482 230.191 311.016 227.194 306.096 225.148C301.177 223.103 295.902 222.05 290.574 222.05ZM219.077 225.821C221.518 223.421 224.188 221.266 227.05 219.386V141.2C227.05 138.137 225.833 135.199 223.667 133.033C221.501 130.867 218.563 129.65 215.5 129.65H203.95V106.55C203.95 103.487 202.733 100.549 200.567 98.3829C198.401 96.2169 195.463 95 192.4 95H134.65C131.587 95 128.649 96.2169 126.483 98.3829C124.317 100.549 123.1 103.487 123.1 106.55V129.65H111.55C108.487 129.65 105.549 130.867 103.383 133.033C101.217 135.199 100 138.137 100 141.2V274.025C100 275.556 100.608 277.025 101.691 278.108C102.774 279.191 104.243 279.8 105.775 279.8H209.837C206.074 274.91 204.008 268.929 203.95 262.76C203.894 255.907 205.203 249.112 207.8 242.77C210.397 236.428 214.23 230.667 219.077 225.821ZM151.975 240.818C151.975 241.967 151.519 243.069 150.706 243.881C149.894 244.693 148.792 245.15 147.644 245.15H133.206C132.057 245.15 130.956 244.693 130.144 243.881C129.331 243.069 128.875 241.967 128.875 240.818V226.381C128.875 225.232 129.331 224.131 130.144 223.318C130.956 222.506 132.057 222.05 133.206 222.05H147.644C148.792 222.05 149.894 222.506 150.706 223.318C151.519 224.131 151.975 225.232 151.975 226.381V240.818ZM151.975 194.618C151.975 195.767 151.519 196.869 150.706 197.681C149.894 198.493 148.792 198.95 147.644 198.95H133.206C132.057 198.95 130.956 198.493 130.144 197.681C129.331 196.869 128.875 195.767 128.875 194.618V180.181C128.875 179.032 129.331 177.931 130.144 177.118C130.956 176.306 132.057 175.85 133.206 175.85H147.644C148.792 175.85 149.894 176.306 150.706 177.118C151.519 177.931 151.975 179.032 151.975 180.181V194.618ZM169.3 150.584C169.3 151.159 169.072 151.709 168.666 152.116C168.259 152.522 167.709 152.75 167.134 152.75H159.915C159.341 152.75 158.79 152.522 158.384 152.116C157.978 151.709 157.75 151.159 157.75 150.584V141.2H148.365C147.791 141.2 147.24 140.972 146.834 140.566C146.428 140.159 146.2 139.609 146.2 139.034V131.816C146.2 131.241 146.428 130.69 146.834 130.284C147.24 129.878 147.791 129.65 148.365 129.65H157.75V120.266C157.75 119.691 157.978 119.14 158.384 118.734C158.79 118.328 159.341 118.1 159.915 118.1H167.134C167.709 118.1 168.259 118.328 168.666 118.734C169.072 119.14 169.3 119.691 169.3 120.266V129.65H178.684C179.259 129.65 179.809 129.878 180.215 130.284C180.622 130.69 180.85 131.241 180.85 131.816V139.034C180.85 139.609 180.622 140.159 180.215 140.566C179.809 140.972 179.259 141.2 178.684 141.2H169.3V150.584ZM198.175 240.818C198.175 241.967 197.718 243.069 196.906 243.881C196.094 244.693 194.992 245.15 193.844 245.15H179.406C178.257 245.15 177.156 244.693 176.343 243.881C175.531 243.069 175.075 241.967 175.075 240.818V226.381C175.075 225.232 175.531 224.131 176.343 223.318C177.156 222.506 178.257 222.05 179.406 222.05H193.844C194.992 222.05 196.094 222.506 196.906 223.318C197.718 224.131 198.175 225.232 198.175 226.381V240.818ZM198.175 194.618C198.175 195.767 197.718 196.869 196.906 197.681C196.094 198.493 194.992 198.95 193.844 198.95H179.406C178.257 198.95 177.156 198.493 176.343 197.681C175.531 196.869 175.075 195.767 175.075 194.618V180.181C175.075 179.032 175.531 177.931 176.343 177.118C177.156 176.306 178.257 175.85 179.406 175.85H193.844C194.992 175.85 196.094 176.306 196.906 177.118C197.718 177.931 198.175 179.032 198.175 180.181V194.618Z" mask="url(#path-2-outside-1_309_181)"/><path fill="#272343" stroke="#fff" stroke-width="8" d="M461.464 372.2C461.464 363.71 456.12 356.469 448.612 353.657C456.665 342.6 461.464 329.012 461.464 314.29C461.464 277.243 431.337 247.116 394.29 247.116H390.29V251.116V272.174V276.174H394.29C415.304 276.174 432.406 293.276 432.406 314.29C432.406 335.304 415.304 352.406 394.29 352.406H304.794C293.862 352.406 285 361.268 285 372.2C285 377.318 289.147 381.464 294.265 381.464H452.2C457.318 381.464 461.464 377.318 461.464 372.2ZM327.116 303.761C327.116 311.767 333.594 318.262 341.593 318.29V319.555C341.593 324.673 345.74 328.819 350.858 328.819H364.019C369.137 328.819 373.284 324.673 373.284 319.555V318.29C381.283 318.262 387.761 311.767 387.761 303.761V230.058C387.761 223.422 383.311 217.824 377.232 216.087V214.265C377.232 209.147 373.085 205 367.968 205H346.91C341.792 205 337.645 209.147 337.645 214.265V216.087C331.567 217.824 327.116 223.422 327.116 230.058V303.761ZM323.219 349.877H391.658C395.321 349.877 398.29 346.908 398.29 343.245V337.981C398.29 334.317 395.321 331.348 391.658 331.348H323.219C319.556 331.348 316.587 334.317 316.587 337.981V343.245C316.587 346.908 319.556 349.877 323.219 349.877Z"/><mask id="path-4-outside-2_309_181" width="247" height="201" x="0" y="229" fill="#000" maskUnits="userSpaceOnUse"><rect width="247" height="201" y="229" fill="#fff"/><path d="M237.596 377.82C229.774 348.476 217.369 320.377 200.777 294.436C192.793 281.958 187.758 271.65 171.884 271.65C157.919 271.65 146.6 282.269 146.6 295.367V317.063L134.732 309.151C133.942 308.624 133.293 307.91 132.845 307.072C132.397 306.234 132.162 305.298 132.163 304.347V242.775C132.163 239.584 129.578 237 126.388 237H120.613C117.422 237 114.838 239.584 114.838 242.775V304.347C114.838 306.278 113.874 308.079 112.268 309.151L100.4 317.063V295.367C100.4 282.269 89.081 271.65 75.1163 271.65C59.2423 271.65 54.2072 281.958 46.2233 294.436C29.631 320.377 17.2256 348.476 9.40405 377.82C8.46922 381.317 8 384.909 8 388.514C8 410.615 30.5514 426.572 53.2038 420.501L74.6796 414.744C89.9039 410.665 100.4 397.61 100.4 382.757V351.179L69.4171 371.835C69.1018 372.046 68.748 372.192 68.3761 372.266C68.0042 372.339 67.6214 372.339 67.2496 372.265C66.8779 372.19 66.5244 372.043 66.2095 371.832C65.8946 371.621 65.6244 371.35 65.4143 371.034L62.2092 366.23C61.9987 365.915 61.8525 365.561 61.7789 365.189C61.7052 364.817 61.7056 364.434 61.7801 364.063C61.8545 363.691 62.0014 363.337 62.2126 363.022C62.4237 362.708 62.6949 362.437 63.0105 362.227L123.5 321.903L183.99 362.227C184.305 362.437 184.576 362.708 184.787 363.023C184.998 363.337 185.145 363.691 185.22 364.063C185.294 364.434 185.295 364.817 185.221 365.189C185.147 365.561 185.001 365.915 184.791 366.23L181.586 371.034C181.376 371.35 181.105 371.621 180.79 371.832C180.476 372.043 180.122 372.19 179.75 372.264C179.379 372.339 178.996 372.339 178.624 372.266C178.252 372.192 177.898 372.046 177.583 371.835L146.6 351.179V382.757C146.6 397.61 157.096 410.661 172.32 414.744L193.796 420.501C216.449 426.572 239 410.615 239 388.514C239 384.909 238.531 381.317 237.596 377.82Z"/></mask><path fill="#272343" d="M237.596 377.82C229.774 348.476 217.369 320.377 200.777 294.436C192.793 281.958 187.758 271.65 171.884 271.65C157.919 271.65 146.6 282.269 146.6 295.367V317.063L134.732 309.151C133.942 308.624 133.293 307.91 132.845 307.072C132.397 306.234 132.162 305.298 132.163 304.347V242.775C132.163 239.584 129.578 237 126.388 237H120.613C117.422 237 114.838 239.584 114.838 242.775V304.347C114.838 306.278 113.874 308.079 112.268 309.151L100.4 317.063V295.367C100.4 282.269 89.081 271.65 75.1163 271.65C59.2423 271.65 54.2072 281.958 46.2233 294.436C29.631 320.377 17.2256 348.476 9.40405 377.82C8.46922 381.317 8 384.909 8 388.514C8 410.615 30.5514 426.572 53.2038 420.501L74.6796 414.744C89.9039 410.665 100.4 397.61 100.4 382.757V351.179L69.4171 371.835C69.1018 372.046 68.748 372.192 68.3761 372.266C68.0042 372.339 67.6214 372.339 67.2496 372.265C66.8779 372.19 66.5244 372.043 66.2095 371.832C65.8946 371.621 65.6244 371.35 65.4143 371.034L62.2092 366.23C61.9987 365.915 61.8525 365.561 61.7789 365.189C61.7052 364.817 61.7056 364.434 61.7801 364.063C61.8545 363.691 62.0014 363.337 62.2126 363.022C62.4237 362.708 62.6949 362.437 63.0105 362.227L123.5 321.903L183.99 362.227C184.305 362.437 184.576 362.708 184.787 363.023C184.998 363.337 185.145 363.691 185.22 364.063C185.294 364.434 185.295 364.817 185.221 365.189C185.147 365.561 185.001 365.915 184.791 366.23L181.586 371.034C181.376 371.35 181.105 371.621 180.79 371.832C180.476 372.043 180.122 372.19 179.75 372.264C179.379 372.339 178.996 372.339 178.624 372.266C178.252 372.192 177.898 372.046 177.583 371.835L146.6 351.179V382.757C146.6 397.61 157.096 410.661 172.32 414.744L193.796 420.501C216.449 426.572 239 410.615 239 388.514C239 384.909 238.531 381.317 237.596 377.82Z"/><path fill="#F5F5F5" d="M200.777 294.436L207.516 290.125L207.515 290.124L200.777 294.436ZM146.6 317.063L142.162 323.72L154.6 332.011V317.063H146.6ZM134.732 309.151L130.293 315.807L130.295 315.808L134.732 309.151ZM132.163 304.347L140.163 304.349V304.347H132.163ZM112.268 309.151L116.705 315.808L116.709 315.806L112.268 309.151ZM100.4 317.063H92.4V332.011L104.838 323.72L100.4 317.063ZM46.2233 294.436L39.4847 290.124L39.484 290.125L46.2233 294.436ZM9.40405 377.82L17.1327 379.886L17.1342 379.88L9.40405 377.82ZM53.2038 420.501L55.2748 428.228L55.2752 428.228L53.2038 420.501ZM74.6796 414.744L72.6094 407.016L72.6082 407.016L74.6796 414.744ZM100.4 351.179H108.4V336.23L95.9622 344.523L100.4 351.179ZM69.4171 371.835L64.9794 365.179L64.9762 365.181L69.4171 371.835ZM65.4143 371.034L72.0745 366.602L72.0692 366.594L65.4143 371.034ZM62.2092 366.23L68.8641 361.79L68.8634 361.789L62.2092 366.23ZM61.7789 365.189L53.9312 366.743L61.7789 365.189ZM63.0105 362.227L67.4424 368.887L67.4479 368.884L63.0105 362.227ZM123.5 321.903L127.937 315.247L123.5 312.289L119.063 315.247L123.5 321.903ZM183.99 362.227L179.552 368.884L179.556 368.886L183.99 362.227ZM184.791 366.23L191.446 370.67L191.446 370.669L184.791 366.23ZM181.586 371.034L174.931 366.594L174.927 366.601L181.586 371.034ZM177.583 371.835L182.022 365.18L182.021 365.179L177.583 371.835ZM146.6 351.179L151.038 344.523L138.6 336.23V351.179H146.6ZM172.32 414.744L170.249 422.471L170.249 422.471L172.32 414.744ZM193.796 420.501L191.725 428.228L191.725 428.228L193.796 420.501ZM245.326 375.759C237.289 345.608 224.547 316.751 207.516 290.125L194.037 298.747C210.191 324.002 222.26 351.343 229.866 379.88L245.326 375.759ZM207.515 290.124C203.9 284.475 199.97 277.607 194.875 272.637C189.165 267.068 181.943 263.65 171.884 263.65V279.65C177.698 279.65 180.931 281.387 183.703 284.091C187.09 287.395 189.669 291.92 194.038 298.748L207.515 290.124ZM171.884 263.65C153.99 263.65 138.6 277.376 138.6 295.367H154.6C154.6 287.161 161.848 279.65 171.884 279.65V263.65ZM138.6 295.367V317.063H154.6V295.367H138.6ZM151.038 310.407L139.17 302.495L130.295 315.808L142.162 323.72L151.038 310.407ZM139.171 302.496C139.476 302.699 139.726 302.975 139.899 303.298L125.791 310.845C126.861 312.844 128.407 314.549 130.293 315.807L139.171 302.496ZM139.899 303.298C140.072 303.621 140.163 303.982 140.163 304.349L124.163 304.346C124.162 306.613 124.722 308.846 125.791 310.845L139.899 303.298ZM140.163 304.347V242.775H124.163V304.347H140.163ZM140.163 242.775C140.163 235.166 133.996 229 126.388 229V245C125.16 245 124.163 244.003 124.163 242.775H140.163ZM126.388 229H120.613V245H126.388V229ZM120.613 229C113.004 229 106.838 235.166 106.838 242.775H122.838C122.838 244.003 121.84 245 120.613 245V229ZM106.838 242.775V304.347H122.838V242.775H106.838ZM106.838 304.347C106.838 303.604 107.21 302.909 107.827 302.497L116.709 315.806C120.538 313.25 122.838 308.953 122.838 304.347H106.838ZM107.83 302.495L95.9624 310.407L104.838 323.72L116.705 315.808L107.83 302.495ZM108.4 317.063V295.367H92.4V317.063H108.4ZM108.4 295.367C108.4 277.376 93.0098 263.65 75.1163 263.65V279.65C85.1522 279.65 92.4 287.161 92.4 295.367H108.4ZM75.1163 263.65C65.057 263.65 57.8349 267.068 52.125 272.637C47.0302 277.607 43.0995 284.475 39.4847 290.124L52.9619 298.748C57.331 291.92 59.9098 287.395 63.2971 284.091C66.0692 281.387 69.3017 279.65 75.1163 279.65V263.65ZM39.484 290.125C22.4535 316.751 9.71065 345.608 1.67393 375.759L17.1342 379.88C24.7405 351.343 36.8085 324.002 52.9626 298.747L39.484 290.125ZM1.67536 375.754C0.559855 379.927 0 384.213 0 388.514H16C16 385.604 16.3786 382.707 17.1327 379.886L1.67536 375.754ZM0 388.514C0 416.542 28.2052 435.483 55.2748 428.228L51.1329 412.773C32.8975 417.66 16 404.687 16 388.514H0ZM55.2752 428.228L76.751 422.471L72.6082 407.016L51.1324 412.773L55.2752 428.228ZM76.7498 422.471C95.1727 417.536 108.4 401.532 108.4 382.757H92.4C92.4 393.688 84.6352 403.794 72.6094 407.016L76.7498 422.471ZM108.4 382.757V351.179H92.4V382.757H108.4ZM95.9622 344.523L64.9794 365.179L73.8549 378.492L104.838 357.835L95.9622 344.523ZM64.9762 365.181C65.5354 364.808 66.1627 364.549 66.8223 364.418L69.9299 380.113C71.3333 379.836 72.6681 379.284 73.8581 378.49L64.9762 365.181ZM66.8223 364.418C67.4819 364.288 68.1607 364.288 68.8199 364.42L65.6793 380.109C67.082 380.39 68.5264 380.391 69.9299 380.113L66.8223 364.418ZM68.8199 364.42C69.4791 364.552 70.1059 364.813 70.6644 365.187L61.7546 378.477C62.9429 379.274 64.2766 379.828 65.6793 380.109L68.8199 364.42ZM70.6644 365.187C71.2229 365.562 71.7021 366.042 72.0745 366.602L58.7542 375.466C59.5467 376.657 60.5663 377.68 61.7546 378.477L70.6644 365.187ZM72.0692 366.594L68.8641 361.79L55.5543 370.67L58.7595 375.474L72.0692 366.594ZM68.8634 361.789C69.2366 362.348 69.4959 362.976 69.6265 363.635L53.9312 366.743C54.2091 368.146 54.7609 369.481 55.555 370.671L68.8634 361.789ZM69.6265 363.635C69.7571 364.295 69.7564 364.974 69.6244 365.633L53.9357 362.492C53.6549 363.895 53.6533 365.339 53.9312 366.743L69.6265 363.635ZM69.6244 365.633C69.4925 366.292 69.2318 366.919 68.8574 367.477L55.5677 358.568C54.7711 359.756 54.2165 361.089 53.9357 362.492L69.6244 365.633ZM68.8574 367.477C68.483 368.036 68.0021 368.515 67.4424 368.887L58.5785 355.567C57.3876 356.36 56.3644 357.379 55.5677 358.568L68.8574 367.477ZM67.4479 368.884L127.937 328.56L119.063 315.247L58.5731 355.571L67.4479 368.884ZM119.063 328.56L179.552 368.884L188.427 355.571L127.937 315.247L119.063 328.56ZM179.556 368.886C178.997 368.514 178.516 368.035 178.142 367.477L191.433 358.568C190.636 357.38 189.614 356.361 188.423 355.568L179.556 368.886ZM178.142 367.477C177.768 366.918 177.507 366.292 177.375 365.633L193.064 362.492C192.783 361.09 192.229 359.757 191.433 358.568L178.142 367.477ZM177.375 365.633C177.243 364.974 177.243 364.295 177.373 363.636L193.069 366.742C193.346 365.339 193.345 363.895 193.064 362.492L177.375 365.633ZM177.373 363.636C177.504 362.977 177.763 362.35 178.136 361.791L191.446 370.669C192.24 369.48 192.791 368.145 193.069 366.742L177.373 363.636ZM178.136 361.79L174.931 366.594L188.241 375.474L191.446 370.67L178.136 361.79ZM174.927 366.601C175.299 366.041 175.778 365.561 176.336 365.186L185.245 378.477C186.433 377.681 187.452 376.658 188.245 375.468L174.927 366.601ZM176.336 365.186C176.895 364.812 177.521 364.552 178.18 364.42L181.321 380.109C182.723 379.828 184.056 379.274 185.245 378.477L176.336 365.186ZM178.18 364.42C178.839 364.288 179.517 364.287 180.177 364.418L177.071 380.113C178.474 380.391 179.918 380.389 181.321 380.109L178.18 364.42ZM180.177 364.418C180.836 364.548 181.463 364.807 182.022 365.18L173.144 378.491C174.334 379.284 175.668 379.836 177.071 380.113L180.177 364.418ZM182.021 365.179L151.038 344.523L142.162 357.835L173.145 378.492L182.021 365.179ZM138.6 351.179V382.757H154.6V351.179H138.6ZM138.6 382.757C138.6 401.533 151.828 417.532 170.249 422.471L174.392 407.017C162.364 403.791 154.6 393.687 154.6 382.757H138.6ZM170.249 422.471L191.725 428.228L195.868 412.773L174.392 407.016L170.249 422.471ZM191.725 428.228C218.795 435.483 247 416.542 247 388.514H231C231 404.687 214.103 417.66 195.867 412.773L191.725 428.228ZM247 388.514C247 384.213 246.44 379.927 245.325 375.754L229.867 379.886C230.621 382.707 231 385.604 231 388.514H247Z" mask="url(#path-4-outside-2_309_181)"/><path stroke="#fff" stroke-linecap="round" stroke-width="3" d="M183 189C184.14 189 191.795 189 189.5 189C187.391 189 183.952 189.096 183 191"/><path stroke="#fff" stroke-linecap="round" stroke-width="3" d="M143 188C142.575 187.953 135.912 184.633 138 187C139.668 188.891 143.401 190.055 141.556 189C138.932 187.501 143.242 184 138.5 184C135.606 184 134.874 188.937 137 190"/><path stroke="#fff" stroke-linecap="round" stroke-width="12" d="M145 186C142.097 186 143 190.946 143 188"/><path stroke="#fff" stroke-linecap="round" stroke-width="12" d="M183 232C185.197 232 186.975 233.325 189 234"/><path stroke="#fff" stroke-linecap="round" stroke-width="12" d="M144 232C143.007 232.882 142.289 233 141 233"/><path stroke="#fff" stroke-linecap="round" stroke-width="12" d="M243 145C239.656 145 240.538 146.731 238 148"/><path stroke="#fff" stroke-linecap="round" stroke-width="12" d="M248 213C245.169 213 241.065 211.373 240 208.444C239.315 206.562 238.41 201.111 235.5 201.111C234.577 201.111 235 208.001 235 209C235 211.352 234 212.921 234 215"/><path stroke="#fff" stroke-linecap="round" stroke-width="12" d="M336.903 53.4908C336.903 48.7213 337.886 42.4561 335.819 38.3218"/><path stroke="#fff" stroke-linecap="round" stroke-width="12" d="M238.304 55.6578C238.304 50.6751 239.949 42.4147 237.22 38.3218"/></svg>